<svg xmlns="http://www.w3.org/2000/svg" width="256" height="256" viewBox="0 0 100 100"><rect width="100" height="100" rx="50" fill="#991b1b"></rect><path fill="#fff" d="M38.33 42.23Q38.03 39.89 37.07 38.39L37.07 38.39Q35.99 36.77 34.40 36.02Q32.81 35.27 30.35 35.27L30.35 35.27Q26.27 35.27 24.65 37.01L24.65 37.01Q23.09 38.57 23.09 41.51L23.09 41.51Q23.09 43.19 23.57 44.24Q24.05 45.29 25.01 45.95L25.01 45.95Q26.45 46.97 29.75 47.27L29.75 47.27Q33.11 47.57 35.42 48.20Q37.73 48.83 39.47 49.91L39.47 49.91Q43.85 52.67 43.85 58.55L43.85 58.55Q43.85 60.83 42.95 62.87Q42.05 64.91 40.43 66.53L40.43 66.53Q38.51 68.39 35.90 69.29Q33.29 70.19 30.47 70.19L30.47 70.19Q24.11 70.19 20.33 66.59L20.33 66.59Q17.09 63.35 16.43 57.95L16.43 57.95L16.55 57.89L21.83 57.89Q22.31 61.07 23.99 62.63L23.99 62.63Q26.33 64.79 30.29 64.79L30.29 64.79Q34.07 64.79 36.29 63.05Q38.51 61.31 38.51 58.55L38.51 58.55Q38.51 57.29 38.18 56.36Q37.85 55.43 36.95 54.71L36.95 54.71Q34.91 53.15 29.33 52.73L29.33 52.73Q23.63 52.25 20.69 49.43Q17.75 46.61 17.75 41.51L17.75 41.51Q17.75 36.35 20.93 33.17L20.93 33.17Q24.29 29.81 30.29 29.81L30.29 29.81Q36.53 29.81 40.01 33.59L40.01 33.59Q43.07 36.89 43.73 42.23L43.73 42.23L38.33 42.23ZM79.43 65.99Q78.05 67.01 76.67 67.73L76.67 67.73Q72.29 70.07 67.37 70.07L67.37 70.07Q64.31 70.07 61.49 69.17L61.49 69.17Q57.77 68.09 54.71 65.57Q51.65 63.05 49.73 59.45L49.73 59.45Q47.45 55.31 47.45 50.27L47.45 50.27Q47.45 48.71 47.57 47.87L47.57 47.87Q47.93 44.57 49.28 41.60Q50.63 38.63 52.79 36.35L52.79 36.35Q54.95 34.07 57.74 32.51Q60.53 30.95 63.71 30.35L63.71 30.35Q65.51 29.99 67.43 29.99L67.43 29.99Q72.41 29.99 76.91 32.51L76.91 32.51Q80.27 34.49 82.97 37.61L82.97 37.61L78.83 41.09Q75.89 37.85 72.65 36.47L72.65 36.47Q69.95 35.45 67.19 35.45L67.19 35.45Q63.65 35.45 60.47 37.13L60.47 37.13Q56.51 39.23 54.35 43.61L54.35 43.61Q52.79 46.61 52.79 50.03L52.79 50.03Q52.79 51.95 53.33 53.87L53.33 53.87Q54.47 58.55 58.49 61.61L58.49 61.61Q60.35 63.05 62.63 63.83Q64.91 64.61 67.31 64.61L67.31 64.61Q70.49 64.61 73.28 63.32Q76.07 62.03 78.23 59.69L78.23 59.69L78.23 55.67L72.71 55.67L72.71 50.27L83.57 50.27L83.57 61.67Q81.71 64.31 79.43 65.99L79.43 65.99Z"></path></svg>