<svg width="73" height="44" viewBox="0 0 73 44" fill="none" xmlns="http://www.w3.org/2000/svg">
<path d="M23.856 13.56H29.616C29.168 10.04 27.952 6.84 25.648 4.344C23.344 1.848 19.952 0.311996 15.28 0.311996C10.992 0.311996 7.66397 1.528 5.29597 3.896C3.05597 6.136 1.90397 9.208 1.90397 12.792C1.90397 20.152 6.25597 24.056 14.256 24.76C18.608 25.08 21.04 25.848 22.384 26.872C23.728 27.96 24.048 29.368 24.048 30.968C24.048 34.552 21.232 37.304 16.432 37.56C12.848 37.816 10.288 36.92 8.55997 35.32C7.40797 34.232 6.63997 32.76 6.25597 30.264H0.623972L0.495972 30.328C1.00797 34.424 2.41597 37.304 4.65597 39.544C7.34397 42.104 10.928 43.384 15.472 43.384C19.248 43.384 23.216 42.296 26.096 39.48C28.4 37.24 29.744 34.232 29.744 30.968C29.744 26.808 28.208 23.736 25.072 21.752C22.576 20.216 19.504 19.384 14.704 18.936C12.656 18.744 10.928 18.424 9.64797 17.528C8.36797 16.632 7.59997 15.288 7.59997 12.792C7.59997 11.576 7.79197 9.464 9.26397 7.992C10.416 6.776 12.464 6.136 15.344 6.136C18.928 6.136 21.04 7.224 22.512 9.464C23.28 10.68 23.664 12.088 23.856 13.56Z" fill="white"/>
<path d="M67.7985 38.904C69.3985 37.688 70.8705 36.152 72.2145 34.296V22.136H60.6305V27.896H66.5185V32.184C63.5105 35.512 59.4145 37.432 54.8705 37.432C51.4785 37.432 48.0865 36.28 45.4625 34.232C42.6465 32.056 40.7905 29.304 39.9585 25.976C38.9345 22.328 39.3185 18.36 41.0465 15.032C42.5185 12.024 44.7585 9.592 47.5745 8.12C51.7345 5.88 56.4705 5.88 60.5665 7.416C62.8705 8.376 64.9185 9.848 67.1585 12.344L71.5745 8.632C69.5905 6.328 67.4145 4.536 65.1105 3.192C60.5025 0.631996 55.6385 -0.00800323 51.0305 0.887997C46.4225 1.784 42.3905 4.088 39.3825 7.288C36.3745 10.488 34.3265 14.776 33.8145 19.576C33.2385 24.376 34.3265 28.664 36.1185 31.928C38.8705 37.112 43.4785 40.76 48.6625 42.296C53.8465 43.896 59.7345 43.512 64.8545 40.76C65.9425 40.184 66.8385 39.608 67.7985 38.904Z" fill="white"/>
</svg>
